<svg xmlns="http://www.w3.org/2000/svg" xmlns:xlink="http://www.w3.org/1999/xlink" width="1000" zoomAndPan="magnify" viewBox="0 0 750 749.999995" height="1000" preserveAspectRatio="xMidYMid meet" version="1.0"><defs><clipPath id="5c14b8a545"><path d="M 161 156 L 569 156 L 569 447 L 161 447 Z M 161 156 " clip-rule="nonzero"/></clipPath><clipPath id="b5108c1d6a"><path d="M 174.578125 120.691406 L 580.710938 192.882812 L 534.378906 453.546875 L 128.246094 381.355469 Z M 174.578125 120.691406 " clip-rule="nonzero"/></clipPath><clipPath id="e6cd42529e"><path d="M 174.578125 120.691406 L 580.710938 192.882812 L 534.378906 453.546875 L 128.246094 381.355469 Z M 174.578125 120.691406 " clip-rule="nonzero"/></clipPath><clipPath id="b96f0bb2cf"><path d="M 174.578125 120.691406 L 580.710938 192.882812 L 534.378906 453.546875 L 128.246094 381.355469 Z M 174.578125 120.691406 " clip-rule="nonzero"/></clipPath></defs><g clip-path="url(#5c14b8a545)"><g clip-path="url(#b5108c1d6a)"><g clip-path="url(#e6cd42529e)"><g clip-path="url(#b96f0bb2cf)"><path fill="#061826" d="M 561.65625 251.136719 L 561.605469 251.109375 L 386.78125 160.019531 C 381.078125 156.851562 374.390625 155.664062 367.941406 156.671875 L 172.5 181.925781 L 172.382812 181.945312 C 166.984375 182.800781 162.882812 186.832031 161.925781 192.214844 C 160.96875 197.597656 163.433594 202.796875 168.203125 205.457031 L 168.253906 205.488281 L 247.488281 246.773438 L 228.046875 306.695312 C 226.355469 311.90625 228.191406 317.574219 232.609375 320.800781 C 241.664062 327.40625 260.09375 340.300781 281.792969 352.429688 C 303.753906 364.703125 323.1875 372.921875 332.816406 376.726562 C 334.660156 377.457031 336.550781 377.992188 338.472656 378.335938 C 340.398438 378.675781 342.359375 378.824219 344.339844 378.777344 C 354.691406 378.519531 375.765625 377.503906 400.609375 373.550781 C 425.164062 369.640625 446.90625 363.890625 457.679688 360.808594 C 462.941406 359.300781 466.617188 354.613281 466.824219 349.136719 L 469.226562 286.058594 L 502.375 281.773438 C 503.476562 284.085938 503.882812 286.742188 503.402344 289.433594 L 497.351562 323.472656 C 492.226562 324.328125 487.945312 328.320312 486.984375 333.726562 L 484.035156 350.3125 C 483.144531 355.3125 485.34375 360.15625 489.253906 362.890625 L 460.542969 420.457031 C 457.792969 425.972656 459.398438 432.625 464.359375 436.277344 C 470.078125 440.488281 478.203125 443.554688 488.503906 445.386719 C 498.808594 447.21875 507.492188 447.140625 514.3125 445.15625 C 520.226562 443.4375 524.027344 437.742188 523.34375 431.617188 L 523.34375 431.621094 L 516.230469 367.6875 C 520.84375 366.46875 524.574219 362.675781 525.464844 357.675781 L 528.414062 341.089844 C 529.375 335.683594 526.730469 330.460938 522.210938 327.890625 L 528.261719 293.851562 C 529.195312 288.601562 529 283.394531 527.847656 278.480469 L 557.359375 274.667969 L 557.476562 274.652344 C 562.871094 273.796875 566.976562 269.765625 567.933594 264.382812 C 568.890625 259 566.425781 253.800781 561.65625 251.136719 Z M 458.414062 348.820312 C 458.347656 350.644531 457.121094 352.207031 455.367188 352.707031 C 444.777344 355.738281 423.40625 361.394531 399.289062 365.230469 C 374.929688 369.109375 354.277344 370.105469 344.136719 370.355469 C 341.308594 370.425781 338.539062 369.933594 335.910156 368.894531 C 326.476562 365.164062 307.433594 357.113281 285.898438 345.074219 C 264.582031 333.164062 246.46875 320.488281 237.570312 313.996094 C 236.097656 312.921875 235.488281 311.03125 236.050781 309.292969 L 255.058594 250.714844 L 343.078125 296.574219 C 345.929688 298.160156 349.027344 299.25 352.21875 299.816406 C 355.40625 300.382812 358.691406 300.425781 361.914062 299.921875 L 460.765625 287.148438 Z M 365.136719 228.335938 C 358.28125 227.117188 353.699219 220.546875 354.917969 213.6875 C 356.136719 206.828125 362.707031 202.238281 369.558594 203.453125 C 376.410156 204.671875 380.996094 211.246094 379.777344 218.105469 C 378.558594 224.964844 371.988281 229.554688 365.136719 228.335938 Z M 388.164062 218.90625 L 500.945312 259.480469 C 514.492188 264.355469 522.496094 278.191406 519.976562 292.378906 L 514.050781 325.703125 L 505.765625 324.230469 L 511.6875 290.90625 C 513.492188 280.773438 507.773438 270.890625 498.097656 267.40625 L 385.316406 226.835938 C 386.636719 224.667969 387.589844 222.226562 388.0625 219.578125 C 388.101562 219.351562 388.132812 219.128906 388.164062 218.90625 Z M 495.269531 335.199219 C 495.675781 332.914062 497.863281 331.382812 500.148438 331.789062 L 516.71875 334.734375 C 519.003906 335.140625 520.53125 337.332031 520.125 339.617188 L 517.179688 356.203125 C 516.773438 358.492188 514.582031 360.019531 512.296875 359.613281 L 495.726562 356.667969 C 493.441406 356.261719 491.914062 354.070312 492.320312 351.785156 Z M 511.964844 437.070312 C 508.632812 438.039062 502.960938 438.847656 494.140625 437.726562 L 498.417969 413.660156 C 498.824219 411.371094 497.300781 409.183594 495.011719 408.777344 C 492.722656 408.371094 490.539062 409.898438 490.132812 412.1875 L 485.855469 436.253906 C 477.1875 434.269531 472.140625 431.550781 469.347656 429.492188 C 467.691406 428.273438 467.15625 426.054688 468.074219 424.214844 L 497.347656 365.511719 L 507.726562 367.355469 L 514.980469 432.554688 C 515.207031 434.597656 513.9375 436.496094 511.964844 437.070312 Z M 556.214844 266.324219 L 524.921875 270.367188 C 520.707031 261.859375 513.320312 254.980469 503.792969 251.554688 L 387.449219 209.699219 C 385.195312 202.40625 379.046875 196.585938 371.03125 195.160156 C 359.609375 193.132812 348.664062 200.78125 346.632812 212.214844 C 344.601562 223.644531 352.238281 234.597656 363.664062 236.628906 C 369.164062 237.605469 374.554688 236.332031 378.894531 233.476562 L 492.929688 274.5 L 360.78125 291.578125 L 360.660156 291.59375 C 356.027344 292.328125 351.21875 291.476562 347.121094 289.1875 L 347.070312 289.15625 L 172.257812 198.078125 C 169.875 196.71875 170.085938 194.375 170.210938 193.6875 C 170.332031 193 170.941406 190.726562 173.644531 190.273438 L 369.078125 165.019531 L 369.195312 165 C 373.832031 164.265625 378.640625 165.121094 382.734375 167.410156 L 382.789062 167.4375 L 557.601562 258.519531 C 559.980469 259.878906 559.769531 262.21875 559.648438 262.910156 C 559.527344 263.597656 558.917969 265.867188 556.214844 266.324219 Z M 556.214844 266.324219 " fill-opacity="1" fill-rule="nonzero"/></g></g></g></g></svg>